<svg xmlns="http://www.w3.org/2000/svg" viewBox="0 0 250 250"><defs><style>.cls-1{fill:#333;}.cls-2{fill:#3fa9f5;}.cls-3{fill:#fff;}</style></defs><g id="Layer_2" data-name="Layer 2"><g id="Layer_1-2" data-name="Layer 1"><rect class="cls-1" width="250" height="250" rx="36.06"/><polygon class="cls-2" points="102.22 124.81 87.18 173.94 125.44 173.94 112.46 216.47 162.82 154.75 126.6 154.75 135.48 124.81 102.22 124.81"/><path class="cls-3" d="M140.69,33.53a36.85,36.85,0,0,0-31,17l-.78-.12A36.11,36.11,0,0,0,68.81,76.11l-1.06,3.66a26.72,26.72,0,0,0-3.28,2.46,27.89,27.89,0,0,0,18.44,48.85H162.8a32.35,32.35,0,0,0,7.28-.84,32.06,32.06,0,0,0,8.84-59.15c-.48-.28-1-.54-1.46-.79v-.23A36.7,36.7,0,0,0,140.7,33.52Zm0,9.29A27.34,27.34,0,0,1,168.1,70.08c0,.73,0,1.45-.11,2.16a28.61,28.61,0,0,0-16.61,6.9,23,23,0,0,1,11.42-3,23.84,23.84,0,0,1,4.5.44A22.81,22.81,0,0,1,168,121.2a22.49,22.49,0,0,1-5.16.6H82.91A18.59,18.59,0,1,1,97.7,91.88h.17A25.6,25.6,0,0,0,77.81,78.67a26.69,26.69,0,0,1,29.74-19.11,27.41,27.41,0,0,1,7.11,2A26.83,26.83,0,0,1,130.35,82.2V82a30.07,30.07,0,0,0-13.64-25.17,27.42,27.42,0,0,1,24-14.06"/></g></g></svg>