<svg xmlns="http://www.w3.org/2000/svg" viewBox="0 0 140.26 182.95"><defs><style>.cls-1{fill:#3fa9f5;}.cls-2{fill:#fff;}</style></defs><g id="Layer_2" data-name="Layer 2"><g id="Layer_1-2" data-name="Layer 1"><polygon class="cls-1" points="47.35 91.29 32.31 140.42 70.57 140.42 57.59 182.95 107.95 121.23 71.73 121.23 80.61 91.29 47.35 91.29"/><path class="cls-2" d="M85.82,0a36.85,36.85,0,0,0-31,17L54,16.85A36.11,36.11,0,0,0,13.94,42.59l-1.06,3.66A26.72,26.72,0,0,0,9.6,48.71,27.89,27.89,0,0,0,28,97.56h79.89a32.35,32.35,0,0,0,7.28-.84,32.06,32.06,0,0,0,8.84-59.15c-.48-.28-1-.54-1.46-.79v-.23A36.7,36.7,0,0,0,85.83,0Zm0,9.29a27.34,27.34,0,0,1,27.41,27.26c0,.73,0,1.45-.11,2.16a28.61,28.61,0,0,0-16.61,6.9,23,23,0,0,1,11.42-3,23.84,23.84,0,0,1,4.5.44,22.81,22.81,0,0,1,.66,44.66,22.49,22.49,0,0,1-5.16.6H28A18.59,18.59,0,1,1,42.83,58.36H43A25.6,25.6,0,0,0,22.94,45.15,26.69,26.69,0,0,1,52.68,26a27.41,27.41,0,0,1,7.11,2A26.83,26.83,0,0,1,75.48,48.68v-.16A30.07,30.07,0,0,0,61.84,23.35a27.42,27.42,0,0,1,24-14.06"/></g></g></svg>